<?xml version="1.0" encoding="UTF-8" standalone="no"?>
<!-- Created with Inkscape (http://www.inkscape.org/) -->

<svg
   width="24"
   height="24"
   viewBox="0 0 6.3499999 6.3500002"
   version="1.1"
   id="svg5"
   inkscape:version="1.1 (c68e22c387, 2021-05-23)"
   sodipodi:docname="art.svg"
   xmlns:inkscape="http://www.inkscape.org/namespaces/inkscape"
   xmlns:sodipodi="http://sodipodi.sourceforge.net/DTD/sodipodi-0.dtd"
   xmlns="http://www.w3.org/2000/svg"
   xmlns:svg="http://www.w3.org/2000/svg">
  <sodipodi:namedview
     id="namedview7"
     pagecolor="#505050"
     bordercolor="#ffffff"
     borderopacity="1"
     inkscape:pageshadow="0"
     inkscape:pageopacity="0"
     inkscape:pagecheckerboard="1"
     inkscape:document-units="px"
     showgrid="false"
     units="px"
     width="24px"
     inkscape:zoom="4"
     inkscape:cx="-110.25"
     inkscape:cy="51.5"
     inkscape:window-width="2511"
     inkscape:window-height="1376"
     inkscape:window-x="49"
     inkscape:window-y="27"
     inkscape:window-maximized="1"
     inkscape:current-layer="layer4" />
  <defs
     id="defs2" />
  <g
     inkscape:label="pacman closed"
     inkscape:groupmode="layer"
     id="layer1"
     style="display:none">
    <circle
       style="fill:#ffffff;fill-rule:evenodd;stroke-width:0.244755"
       id="path31"
       cx="3.175"
       cy="3.175"
       r="2.6458333" />
  </g>
  <g
     inkscape:groupmode="layer"
     id="layer2"
     inkscape:label="pacman open"
     style="display:none">
    <path
       style="display:inline;fill:#ffffff;fill-rule:evenodd;stroke-width:0.244755"
       id="path31-3"
       sodipodi:type="arc"
       sodipodi:cx="3.175"
       sodipodi:cy="3.175"
       sodipodi:rx="2.6458333"
       sodipodi:ry="2.6458333"
       sodipodi:start="0.4712389"
       sodipodi:end="5.8119464"
       sodipodi:arc-type="slice"
       d="M 5.5324546,4.3761831 A 2.6458333,2.6458333 0 0 1 2.5573424,5.7477286 2.6458333,2.6458333 0 0 1 0.5291667,3.175 2.6458333,2.6458333 0 0 1 2.5573424,0.60227129 2.6458333,2.6458333 0 0 1 5.5324546,1.9738168 L 3.175,3.175 Z" />
    <path
       style="fill:#000000;stroke-width:0.264583"
       id="path553"
       d="" />
    <path
       style="fill:#000000;stroke-width:0.264583"
       id="path533"
       d="" />
    <path
       style="fill:#000000;stroke-width:0.264583"
       id="path513"
       d="" />
    <path
       style="fill:#000000;stroke-width:0.264583"
       id="path5003"
       d="" />
    <path
       style="fill:#000000;stroke-width:0.264583"
       id="path4721"
       d="" />
  </g>
  <g
     inkscape:groupmode="layer"
     id="layer3"
     inkscape:label="ghost normal"
     style="display:none">
    <path
       style="fill:#ffffff;stroke-width:0.0541925"
       d="M 5.2988598,5.7101944 C 5.3192141,5.6553061 5.3354991,4.8661956 5.3350483,3.9566159 5.3342698,2.3606743 5.3300491,2.291289 5.2147277,1.9727218 4.8904423,1.0768916 3.8454283,0.4953655 2.8769732,0.67181619 1.8737119,0.85460859 1.2916587,1.5112125 1.1802857,2.5858159 1.1541569,2.837919 1.1415848,3.628947 1.1523443,4.3436573 1.1765078,5.9485116 1.1887014,5.979788 1.6158424,5.5324555 1.7695794,5.3714519 1.9234798,5.239722 1.9578442,5.239722 c 0.034365,0 0.1888098,0.1323008 0.3432124,0.2940019 0.2565709,0.2686979 0.2917644,0.2884355 0.4089123,0.2293305 0.0705,-0.03557 0.1765982,-0.1848152 0.1910515,-0.2065146 0.0934,-0.1402251 0.2614415,-0.3168178 0.3598899,-0.3168178 0.055849,0 0.2132279,0.1283108 0.3497291,0.2851349 0.1365014,0.156824 0.2804673,0.2851344 0.3199215,0.2851344 0.039455,0 0.190071,-0.1283104 0.3347008,-0.2851344 C 4.4098893,5.3680328 4.5549024,5.239722 4.587507,5.239722 c 0.032606,0 0.1818046,0.1283108 0.3315495,0.2851349 0.1497469,0.156824 0.2881342,0.2851344 0.3075304,0.2851344 0.019387,0 0.051919,-0.044909 0.072273,-0.099797 z M 2.4861351,3.2849818 C 2.2271019,3.1435121 2.1475901,2.7204572 2.3208848,2.4057381 2.5247912,2.0354315 3.0179762,2.0273309 3.2514799,2.3904521 3.4329982,2.6727315 3.3463548,3.1441023 3.087164,3.284395 2.8330261,3.4219536 2.7371079,3.4220472 2.4861351,3.2849769 Z m 0.4985309,-0.09823 c -1.6054495,-2.32125811 -0.8027247,-1.1606291 0,0 z m 1.2288886,0.056135 C 3.7963875,2.8795213 4.0331709,2.1317539 4.5654033,2.1317539 c 0.3919356,0 0.6580791,0.3978878 0.5372719,0.8032273 -0.080816,0.2711555 -0.2742856,0.4228518 -0.5392981,0.4228518 -0.140439,0 -0.2647517,-0.040847 -0.3498225,-0.1149462 z"
       id="path6336"
       sodipodi:nodetypes="scsssssssssssssssssssssssccsssss" />
    <circle
       style="fill:#ffffff;stroke-width:0.300052"
       id="path8045"
       cx="4.7368588"
       cy="2.8065944"
       r="0.29389971" />
    <circle
       style="fill:#ffffff;stroke-width:0.307116"
       id="path8045-6"
       cx="2.9693351"
       cy="2.7469721"
       r="0.30081892" />
  </g>
  <g
     inkscape:groupmode="layer"
     id="layer4"
     inkscape:label="ghost frightened">
    <path
       style="fill:#000cff;stroke-width:0.0541925;fill-opacity:1"
       d="M 5.3093144,5.6051813 C 5.3296687,5.550293 5.3459537,4.7611825 5.3455029,3.8516028 5.3447244,2.2556612 5.3405037,2.1862759 5.2251823,1.8677087 4.9008969,0.97187849 3.8558829,0.39035239 2.8874278,0.56680308 1.8841665,0.74959548 1.3021133,1.4061994 1.1907403,2.4808028 1.1646115,2.7329059 1.1520394,3.5239339 1.1627989,4.2386442 1.1869624,5.8434985 1.199156,5.8747749 1.626297,5.4274424 1.780034,5.2664388 1.9339344,5.1347089 1.9682988,5.1347089 c 0.034365,0 0.1888098,0.1323008 0.3432124,0.2940019 0.2565709,0.2686979 0.2917644,0.2884355 0.4089123,0.2293305 0.0705,-0.03557 0.1765982,-0.1848152 0.1910515,-0.2065146 0.0934,-0.1402251 0.2614415,-0.3168178 0.3598899,-0.3168178 0.055849,0 0.2132279,0.1283108 0.3497291,0.2851349 0.1365014,0.156824 0.2804673,0.2851344 0.3199215,0.2851344 0.039455,0 0.190071,-0.1283104 0.3347008,-0.2851344 0.1446276,-0.1568241 0.2896407,-0.2851349 0.3222453,-0.2851349 0.032606,0 0.1818046,0.1283108 0.3315495,0.2851349 0.1497469,0.156824 0.2881342,0.2851344 0.3075304,0.2851344 0.019387,0 0.051919,-0.044909 0.072273,-0.099797 z M 2.4965897,3.1799687 C 2.2375565,3.038499 2.1580447,2.6154441 2.3313394,2.300725 2.5352458,1.9304184 3.0284308,1.9223178 3.2619345,2.285439 3.4434528,2.5677184 3.3568094,3.0390892 3.0976186,3.1793819 2.8434807,3.3169405 2.7475625,3.3170341 2.4965897,3.1799638 Z m 0.4985309,-0.09823 c -1.6054495,-2.32125812 -0.8027247,-1.1606291 0,0 z m 1.2288886,0.056135 C 3.8068421,2.7745082 4.0436255,2.0267408 4.5758579,2.0267408 c 0.3919356,0 0.6580791,0.3978878 0.5372719,0.8032273 -0.080816,0.2711555 -0.2742856,0.4228518 -0.5392981,0.4228518 -0.140439,0 -0.2647517,-0.040847 -0.3498225,-0.1149462 z"
       id="path6336-4"
       sodipodi:nodetypes="scsssssssssssssssssssssssccsssss" />
    <circle
       style="fill:#ffa302;stroke-width:0.300052;fill-opacity:1"
       id="path8045-1"
       cx="4.7473135"
       cy="2.7015812"
       r="0.29389971" />
    <circle
       style="fill:#ffa302;stroke-width:0.307116;fill-opacity:1"
       id="path8045-6-8"
       cx="2.9797895"
       cy="2.641959"
       r="0.30081892" />
    <path
       style="fill:none;fill-opacity:1;stroke:#ffa302;stroke-width:0.264583px;stroke-linecap:butt;stroke-linejoin:miter;stroke-opacity:1"
       d="M 2.2160353,4.0604389 2.835073,4.4178405 3.6045963,3.9665981 4.3271171,4.3908879 4.9820421,4.0517251"
       id="path97880" />
  </g>
</svg>
